{"asset":{"version":"2.0","generator":"Blockbench 4.12.6 glTF exporter"},"scenes":[{"nodes":[2],"name":"blockbench_export"}],"scene":0,"nodes":[{"translation":[0,0,-0.25],"name":"cuboid","mesh":0},{"translation":[0,0,0.25],"name":"bone","children":[0]},{"children":[1]}],"bufferViews":[{"buffer":0,"byteOffset":0,"byteLength":1080,"target":34962,"byteStride":12},{"buffer":0,"byteOffset":1080,"byteLength":1080,"target":34962,"byteStride":12},{"buffer":0,"byteOffset":2160,"byteLength":720,"target":34962,"byteStride":8},{"buffer":0,"byteOffset":2880,"byteLength":252,"target":34963}],"buffers":[{"byteLength":3132,"uri":"data:application/octet-stream;base64,"}],"accessors":[{"bufferView":0,"componentType":5126,"count":90,"max":[0.25,0.875,1.75],"min":[-0.25,0,-2],"type":"VEC3"},{"bufferView":1,"componentType":5126,"count":90,"max":[0.9990561604499817,0.9279928803443909,1],"min":[-0.9990561604499817,-1,-0.21381302177906036],"type":"VEC3"},{"bufferView":2,"componentType":5126,"count":90,"max":[0.9425406455993652,0.8798609375953674],"min":[0.03423750028014183,0.046875],"type":"VEC2"},{"bufferView":3,"componentType":5123,"count":126,"max":[89],"min":[0],"type":"SCALAR"}],"materials":[{"pbrMetallicRoughness":{"metallicFactor":0,"roughnessFactor":1,"baseColorTexture":{"index":0}},"alphaMode":"MASK","alphaCutoff":0.05,"doubleSided":true}],"textures":[{"sampler":0,"source":0,"name":"texture.png"}],"samplers":[{"magFilter":9728,"minFilter":9728,"wrapS":33071,"wrapT":33071}],"images":[{"mimeType":"image/png","uri":"data:image/png;base64,"}],"meshes":[{"primitives":[{"mode":4,"attributes":{"POSITION":0,"NORMAL":1,"TEXCOORD_0":2},"indices":3,"material":0}]}]}